<svg height="512" viewBox="0 0 64 64" width="512" xmlns="http://www.w3.org/2000/svg"><g id="hospital-doctor-virus-covid19-coronavirus"><path d="m23 15h-5v4h2 3z" fill="#9bc9ff"/><path d="m44 19h2v-4h-5v4z" fill="#9bc9ff"/><path d="m20 57h7v-10h10v10h7v-38h-3v2h-18v-2h-3zm14-32h4v4h-4zm0 7h4v4h-4zm0 7h4v4h-4zm-8-14h4v4h-4zm0 7h4v4h-4zm0 7h4v4h-4z" fill="#9bc9ff"/><path d="m58 57h-14-7-5-5-7-14-3v4h58v-4z" fill="#9bc9ff"/><path d="m44 27v30h14v-30zm5 4h4v4h-4zm0 7h4v4h-4zm0 7h4v4h-4z" fill="#9bc9ff"/><path d="m6 27v30h14v-30zm5 4h4v4h-4zm0 7h4v4h-4zm0 7h4v4h-4z" fill="#9bc9ff"/><path d="m30 17h4v-3h3v-4h-3v-3h-4v3h-3v4h3z" fill="#9bc9ff"/><path d="m58 27h2v-4h-16v4z" fill="#9bc9ff"/><path d="m20 23h-16v4h2 14z" fill="#9bc9ff"/><g fill="#1e81ce"><path d="m27 15h2v2a1 1 0 0 0 1 1h4a1 1 0 0 0 1-1v-2h2a1 1 0 0 0 1-1v-4a1 1 0 0 0 -1-1h-2v-2a1 1 0 0 0 -1-1h-4a1 1 0 0 0 -1 1v2h-2a1 1 0 0 0 -1 1v4a1 1 0 0 0 1 1zm1-4h2a1 1 0 0 0 1-1v-2h2v2a1 1 0 0 0 1 1h2v2h-2a1 1 0 0 0 -1 1v2h-2v-2a1 1 0 0 0 -1-1h-2z"/><path d="m61 56h-2v-28h1a1 1 0 0 0 1-1v-4a1 1 0 0 0 -1-1h-15v-2h1a1 1 0 0 0 1-1v-4a1 1 0 0 0 -1-1h-4v-11a1 1 0 0 0 -1-1h-18a1 1 0 0 0 -1 1v11h-4a1 1 0 0 0 -1 1v4a1 1 0 0 0 1 1h1v2h-15a1 1 0 0 0 -1 1v4a1 1 0 0 0 1 1h1v28h-2a1 1 0 0 0 -1 1v4a1 1 0 0 0 1 1h58a1 1 0 0 0 1-1v-4a1 1 0 0 0 -1-1zm-2-32v2h-14v-2zm-2 4v28h-12v-28zm-15-12h3v2h-3zm-18-12h16v16h-16zm-1 18h18a1 1 0 0 0 1-1v-1h1v36h-5v-8h1a1 1 0 0 0 0-2h-14a1 1 0 0 0 0 2h1v8h-5v-36h1v1a1 1 0 0 0 1 1zm13 26v8h-3v-8zm-5 0v8h-3v-8zm-12-32h3v2h-3zm-14 8h14v2h-14zm14 4v28h-12v-28zm41 32h-56v-2h56z"/><path d="m26 44h4a1 1 0 0 0 1-1v-4a1 1 0 0 0 -1-1h-4a1 1 0 0 0 -1 1v4a1 1 0 0 0 1 1zm1-4h2v2h-2z"/><path d="m34 44h4a1 1 0 0 0 1-1v-4a1 1 0 0 0 -1-1h-4a1 1 0 0 0 -1 1v4a1 1 0 0 0 1 1zm1-4h2v2h-2z"/><path d="m26 37h4a1 1 0 0 0 1-1v-4a1 1 0 0 0 -1-1h-4a1 1 0 0 0 -1 1v4a1 1 0 0 0 1 1zm1-4h2v2h-2z"/><path d="m34 37h4a1 1 0 0 0 1-1v-4a1 1 0 0 0 -1-1h-4a1 1 0 0 0 -1 1v4a1 1 0 0 0 1 1zm1-4h2v2h-2z"/><path d="m26 30h4a1 1 0 0 0 1-1v-4a1 1 0 0 0 -1-1h-4a1 1 0 0 0 -1 1v4a1 1 0 0 0 1 1zm1-4h2v2h-2z"/><path d="m34 30h4a1 1 0 0 0 1-1v-4a1 1 0 0 0 -1-1h-4a1 1 0 0 0 -1 1v4a1 1 0 0 0 1 1zm1-4h2v2h-2z"/><path d="m49 43h4a1 1 0 0 0 1-1v-4a1 1 0 0 0 -1-1h-4a1 1 0 0 0 -1 1v4a1 1 0 0 0 1 1zm1-4h2v2h-2z"/><path d="m49 50h4a1 1 0 0 0 1-1v-4a1 1 0 0 0 -1-1h-4a1 1 0 0 0 -1 1v4a1 1 0 0 0 1 1zm1-4h2v2h-2z"/><path d="m49 36h4a1 1 0 0 0 1-1v-4a1 1 0 0 0 -1-1h-4a1 1 0 0 0 -1 1v4a1 1 0 0 0 1 1zm1-4h2v2h-2z"/><path d="m11 43h4a1 1 0 0 0 1-1v-4a1 1 0 0 0 -1-1h-4a1 1 0 0 0 -1 1v4a1 1 0 0 0 1 1zm1-4h2v2h-2z"/><path d="m11 50h4a1 1 0 0 0 1-1v-4a1 1 0 0 0 -1-1h-4a1 1 0 0 0 -1 1v4a1 1 0 0 0 1 1zm1-4h2v2h-2z"/><path d="m11 36h4a1 1 0 0 0 1-1v-4a1 1 0 0 0 -1-1h-4a1 1 0 0 0 -1 1v4a1 1 0 0 0 1 1zm1-4h2v2h-2z"/><path d="m48 54h6a1 1 0 0 0 0-2h-6a1 1 0 0 0 0 2z"/><path d="m16 52h-6a1 1 0 0 0 0 2h6a1 1 0 0 0 0-2z"/></g></g></svg>